<svg xmlns="http://www.w3.org/2000/svg" class="art" viewBox="0 0 120 140" role="img" aria-label="A plant growing in soil, with the flower labelled A, a leaf B, the stem C and the root D">
  <rect class="br" x="4" y="96" width="92" height="40" rx="3"/>
  <path d="M50 96c0 10-8 16-14 26M50 96c0 12 4 20 12 30M50 100c-6 4-12 6-18 6M50 104c5 3 10 8 12 14M44 112c-4 2-6 6-6 10"/>
  <rect class="g" x="48" y="30" width="4" height="66"/>
  <path class="g" d="M50 70c-6-10-20-12-30-8 6 10 18 14 30 8z"/>
  <path class="g" d="M50 58c6-10 20-12 30-8-6 10-18 14-30 8z"/>
  <circle class="p" cx="50" cy="13" r="7"/>
  <circle class="p" cx="60" cy="20" r="7"/>
  <circle class="p" cx="56" cy="32" r="7"/>
  <circle class="p" cx="44" cy="32" r="7"/>
  <circle class="p" cx="40" cy="20" r="7"/>
  <circle class="y" cx="50" cy="23" r="5"/>
  <path d="M64 12L100 8M80 50L100 48M52 82H100M60 118H100"/>
  <text x="108" y="8">A</text>
  <text x="108" y="48">B</text>
  <text x="108" y="82">C</text>
  <text x="108" y="118">D</text>
</svg>
